<svg xmlns="http://www.w3.org/2000/svg" width="75" viewBox="0 0 75 75" height="75" version="1.0"><defs><clipPath id="a"><path d="M 2 2 L 73 2 L 73 73.105469 L 2 73.105469 Z M 2 2"/></clipPath></defs><path fill="#FFF" d="M-7.5 -7.5H82.5V82.5H-7.5z"/><path fill="#FFF" d="M-7.5 -7.5H82.5V82.5H-7.5z"/><path fill="#FFF" d="M-7.5 -7.5H82.5V82.5H-7.5z"/><g clip-path="url(#a)"><path fill="#1E3148" d="M 47.722656 37.839844 L 70.566406 14.980469 C 73.40625 12.136719 73.40625 7.539062 70.566406 4.699219 C 67.726562 1.855469 63.132812 1.855469 60.292969 4.699219 L 37.449219 27.558594 L 14.609375 4.699219 C 11.769531 1.855469 7.175781 1.855469 4.335938 4.699219 C 1.496094 7.539062 1.496094 12.136719 4.335938 14.980469 L 27.179688 37.839844 L 4.335938 60.699219 C 1.496094 63.542969 1.496094 68.140625 4.335938 70.980469 C 5.742188 72.390625 7.621094 73.105469 9.472656 73.105469 C 11.324219 73.105469 13.175781 72.390625 14.609375 70.980469 L 37.449219 48.121094 L 60.292969 70.980469 C 61.699219 72.390625 63.578125 73.105469 65.429688 73.105469 C 67.28125 73.105469 69.132812 72.390625 70.566406 70.980469 C 73.40625 68.140625 73.40625 63.542969 70.566406 60.699219 Z M 47.722656 37.839844"/></g></svg>